<svg width="17" height="14" viewBox="0 0 17 14" fill="none" xmlns="http://www.w3.org/2000/svg">
<path d="M15.3329 6.04161H3.27127L7.3854 1.92748C7.75915 1.55373 7.75915 0.947106 7.3854 0.572397C7.01165 0.197689 6.40502 0.198647 6.03031 0.572397L0.280312 6.3224C-0.0934375 6.69615 -0.0934375 7.30277 0.280312 7.67748L6.03031 13.4275C6.21719 13.6144 6.46156 13.7083 6.70785 13.7083C6.95415 13.7083 7.19852 13.6144 7.3854 13.4275C7.75915 13.0537 7.75915 12.4471 7.3854 12.0724L3.27127 7.95827H15.3329C15.8628 7.95827 16.2912 7.5299 16.2912 6.99994C16.2912 6.46998 15.8628 6.04161 15.3329 6.04161Z" fill="#1DA1F2"/>
</svg>
