<svg width="17" height="16" viewBox="0 0 17 16" fill="none" xmlns="http://www.w3.org/2000/svg">
<path d="M14.6023 0.083374H2.398C1.39733 0.083374 0.583496 0.897207 0.583496 1.89787V14.1022C0.583496 15.1029 1.39733 15.9167 2.398 15.9167H14.6023C15.603 15.9167 16.4168 15.1029 16.4168 14.1022V1.89787C16.4168 0.897207 15.603 0.083374 14.6023 0.083374ZM15.2293 14.1022C15.2293 14.4482 14.9483 14.7292 14.6023 14.7292H2.398C2.05204 14.7292 1.771 14.4482 1.771 14.1022V3.58096C1.771 3.235 2.05125 2.95554 2.39641 2.95396H14.6039C14.9491 2.95396 15.2293 3.235 15.2293 3.57937V14.1038V14.1022Z" fill="white"/>
<path d="M4.5671 6.44437C5.12893 6.44437 5.58439 5.98892 5.58439 5.42708C5.58439 4.86525 5.12893 4.40979 4.5671 4.40979C4.00526 4.40979 3.5498 4.86525 3.5498 5.42708C3.5498 5.98892 4.00526 6.44437 4.5671 6.44437Z" fill="white"/>
<path d="M4.5671 9.93253C5.12893 9.93253 5.58439 9.47708 5.58439 8.91524C5.58439 8.35341 5.12893 7.89795 4.5671 7.89795C4.00526 7.89795 3.5498 8.35341 3.5498 8.91524C3.5498 9.47708 4.00526 9.93253 4.5671 9.93253Z" fill="white"/>
<path d="M12.4333 6.44437C12.9951 6.44437 13.4506 5.98892 13.4506 5.42708C13.4506 4.86525 12.9951 4.40979 12.4333 4.40979C11.8715 4.40979 11.416 4.86525 11.416 5.42708C11.416 5.98892 11.8715 6.44437 12.4333 6.44437Z" fill="white"/>
<path d="M12.4333 9.93253C12.9951 9.93253 13.4506 9.47708 13.4506 8.91524C13.4506 8.35341 12.9951 7.89795 12.4333 7.89795C11.8715 7.89795 11.416 8.35341 11.416 8.91524C11.416 9.47708 11.8715 9.93253 12.4333 9.93253Z" fill="white"/>
<path d="M8.5002 6.44437C9.06204 6.44437 9.51749 5.98892 9.51749 5.42708C9.51749 4.86525 9.06204 4.40979 8.5002 4.40979C7.93837 4.40979 7.48291 4.86525 7.48291 5.42708C7.48291 5.98892 7.93837 6.44437 8.5002 6.44437Z" fill="white"/>
<path d="M8.5002 9.93253C9.06204 9.93253 9.51749 9.47708 9.51749 8.91524C9.51749 8.35341 9.06204 7.89795 8.5002 7.89795C7.93837 7.89795 7.48291 8.35341 7.48291 8.91524C7.48291 9.47708 7.93837 9.93253 8.5002 9.93253Z" fill="white"/>
<path d="M4.5671 13.3604C5.12893 13.3604 5.58439 12.9049 5.58439 12.3431C5.58439 11.7813 5.12893 11.3258 4.5671 11.3258C4.00526 11.3258 3.5498 11.7813 3.5498 12.3431C3.5498 12.9049 4.00526 13.3604 4.5671 13.3604Z" fill="white"/>
<path d="M8.5002 13.3604C9.06204 13.3604 9.51749 12.9049 9.51749 12.3431C9.51749 11.7813 9.06204 11.3258 8.5002 11.3258C7.93837 11.3258 7.48291 11.7813 7.48291 12.3431C7.48291 12.9049 7.93837 13.3604 8.5002 13.3604Z" fill="white"/>
</svg>
