<svg width="17" height="16" viewBox="0 0 17 16" fill="none" xmlns="http://www.w3.org/2000/svg">
<path d="M14.6021 0.0833282H2.39775C1.39709 0.0833282 0.583252 0.897161 0.583252 1.89783V14.1022C0.583252 15.1028 1.39709 15.9167 2.39775 15.9167H14.6021C15.6028 15.9167 16.4166 15.1028 16.4166 14.1022V1.89783C16.4166 0.897161 15.6028 0.0833282 14.6021 0.0833282ZM15.2291 14.1022C15.2291 14.4481 14.948 14.7292 14.6021 14.7292H2.39775C2.05179 14.7292 1.77075 14.4481 1.77075 14.1022V3.58091C1.77075 3.23495 2.051 2.9555 2.39617 2.95391H14.6037C14.9488 2.95391 15.2291 3.23495 15.2291 3.57933V14.1037V14.1022Z" fill="white"/>
<path d="M4.56685 6.44437C5.12869 6.44437 5.58414 5.98892 5.58414 5.42708C5.58414 4.86525 5.12869 4.40979 4.56685 4.40979C4.00502 4.40979 3.54956 4.86525 3.54956 5.42708C3.54956 5.98892 4.00502 6.44437 4.56685 6.44437Z" fill="white"/>
<path d="M4.56685 9.93246C5.12869 9.93246 5.58414 9.477 5.58414 8.91516C5.58414 8.35333 5.12869 7.89787 4.56685 7.89787C4.00502 7.89787 3.54956 8.35333 3.54956 8.91516C3.54956 9.477 4.00502 9.93246 4.56685 9.93246Z" fill="white"/>
<path d="M12.4328 6.44437C12.9947 6.44437 13.4501 5.98892 13.4501 5.42708C13.4501 4.86525 12.9947 4.40979 12.4328 4.40979C11.871 4.40979 11.4155 4.86525 11.4155 5.42708C11.4155 5.98892 11.871 6.44437 12.4328 6.44437Z" fill="white"/>
<path d="M12.4328 9.93246C12.9947 9.93246 13.4501 9.477 13.4501 8.91516C13.4501 8.35333 12.9947 7.89787 12.4328 7.89787C11.871 7.89787 11.4155 8.35333 11.4155 8.91516C11.4155 9.477 11.871 9.93246 12.4328 9.93246Z" fill="white"/>
<path d="M8.49996 6.44437C9.06179 6.44437 9.51725 5.98892 9.51725 5.42708C9.51725 4.86525 9.06179 4.40979 8.49996 4.40979C7.93812 4.40979 7.48267 4.86525 7.48267 5.42708C7.48267 5.98892 7.93812 6.44437 8.49996 6.44437Z" fill="white"/>
<path d="M8.49996 9.93246C9.06179 9.93246 9.51725 9.477 9.51725 8.91516C9.51725 8.35333 9.06179 7.89787 8.49996 7.89787C7.93812 7.89787 7.48267 8.35333 7.48267 8.91516C7.48267 9.477 7.93812 9.93246 8.49996 9.93246Z" fill="white"/>
<path d="M4.56685 13.3604C5.12869 13.3604 5.58414 12.9049 5.58414 12.3431C5.58414 11.7812 5.12869 11.3258 4.56685 11.3258C4.00502 11.3258 3.54956 11.7812 3.54956 12.3431C3.54956 12.9049 4.00502 13.3604 4.56685 13.3604Z" fill="white"/>
<path d="M8.49996 13.3604C9.06179 13.3604 9.51725 12.9049 9.51725 12.3431C9.51725 11.7812 9.06179 11.3258 8.49996 11.3258C7.93812 11.3258 7.48267 11.7812 7.48267 12.3431C7.48267 12.9049 7.93812 13.3604 8.49996 13.3604Z" fill="white"/>
</svg>
