<svg width="16" height="16" viewBox="0 0 16 16" fill="none" xmlns="http://www.w3.org/2000/svg">
<path d="M9.46042 0.00791666L6.17658 0H6.175C2.71225 0 0 2.71304 0 6.17658C0 9.42083 2.52225 11.8813 5.90979 12.0112V15.0417C5.90979 15.1272 5.94463 15.2681 6.00479 15.3607C6.11721 15.5388 6.30879 15.6354 6.50513 15.6354C6.61438 15.6354 6.72442 15.6053 6.82338 15.542C7.03238 15.409 11.9478 12.2645 13.2264 11.1831C14.7321 9.9085 15.633 8.04017 15.6354 6.18608V6.17263C15.6307 2.71542 12.92 0.00791653 9.46042 0.00712486V0.00791666ZM12.4585 10.2774C11.5607 11.0374 8.60938 12.973 7.09729 13.9531V11.4301C7.09729 11.1023 6.83208 10.8363 6.50354 10.8363H6.19004C3.29254 10.8363 1.18829 8.87617 1.18829 6.17658C1.18829 3.37883 3.37963 1.1875 6.17579 1.1875L9.45883 1.19542H9.46042C12.2566 1.19542 14.4479 3.38517 14.4495 6.17975C14.4471 7.69183 13.7038 9.22292 12.4593 10.2774H12.4585Z" fill="white"/>
</svg>
