<svg width="17" height="16" viewBox="0 0 17 16" fill="none" xmlns="http://www.w3.org/2000/svg">
<path d="M8.59199 15.94H8.58091C6.53603 15.902 0.635742 10.5709 0.635742 5.52162C0.635742 3.09595 2.6347 0.96637 4.91312 0.96637C6.72603 0.96637 7.9452 2.2172 8.5912 3.12762C9.23562 2.21879 10.4548 0.96637 12.2685 0.96637C14.5485 0.96637 16.5467 3.09595 16.5467 5.52241C16.5467 10.5701 10.6456 15.9012 8.6007 15.9384H8.59199V15.94ZM4.91391 2.15466C3.26724 2.15466 1.82403 3.72849 1.82403 5.5232C1.82403 10.0674 7.39262 14.7034 8.59278 14.7525C9.79453 14.7034 15.3615 10.0682 15.3615 5.5232C15.3615 3.72849 13.9183 2.15466 12.2717 2.15466C10.2703 2.15466 9.15249 4.47899 9.14299 4.50195C8.96091 4.94687 8.22783 4.94687 8.04495 4.50195C8.03387 4.4782 6.91683 2.15466 4.9147 2.15466H4.91391Z" fill="#E0245E"/>
</svg>
