<svg width="17" height="16" viewBox="0 0 17 16" fill="none" xmlns="http://www.w3.org/2000/svg">
<path d="M8.5749 15.3045H8.56382C6.51894 15.2665 0.618652 9.93543 0.618652 4.88618C0.618652 2.46052 2.61761 0.330933 4.89603 0.330933C6.70894 0.330933 7.92811 1.58177 8.57411 2.49218C9.21853 1.58335 10.4377 0.330933 12.2514 0.330933C14.5314 0.330933 16.5296 2.46052 16.5296 4.88697C16.5296 9.93464 10.6285 15.2657 8.58361 15.3029H8.5749V15.3045ZM4.89682 1.51922C3.25015 1.51922 1.80694 3.09306 1.80694 4.88777C1.80694 9.43193 7.37553 14.0679 8.57569 14.117C9.77744 14.0679 15.3444 9.43272 15.3444 4.88777C15.3444 3.09306 13.9012 1.51922 12.2546 1.51922C10.2532 1.51922 9.1354 3.84356 9.1259 3.86652C8.94382 4.31143 8.21074 4.31143 8.02786 3.86652C8.01678 3.84277 6.89974 1.51922 4.89761 1.51922H4.89682Z" fill="white"/>
</svg>
