<svg width="17" height="16" viewBox="0 0 17 16" fill="none" xmlns="http://www.w3.org/2000/svg">
<path d="M8.5915 15.3045H8.58042C6.53555 15.2665 0.635254 9.93543 0.635254 4.88618C0.635254 2.46052 2.63421 0.330933 4.91263 0.330933C6.72555 0.330933 7.94471 1.58177 8.59071 2.49218C9.23513 1.58335 10.4543 0.330933 12.268 0.330933C14.548 0.330933 16.5462 2.46052 16.5462 4.88697C16.5462 9.93464 10.6451 15.2657 8.60021 15.3029H8.5915V15.3045ZM4.91342 1.51922C3.26675 1.51922 1.82355 3.09306 1.82355 4.88777C1.82355 9.43193 7.39213 14.0679 8.5923 14.117C9.79405 14.0679 15.361 9.43272 15.361 4.88777C15.361 3.09306 13.9178 1.51922 12.2712 1.51922C10.2698 1.51922 9.152 3.84356 9.1425 3.86652C8.96042 4.31143 8.22734 4.31143 8.04446 3.86652C8.03338 3.84277 6.91634 1.51922 4.91421 1.51922H4.91342Z" fill="#E0245E"/>
</svg>
