<svg width="15" height="16" viewBox="0 0 15 16" fill="none" xmlns="http://www.w3.org/2000/svg">
<path d="M7.49999 9.83271C5.84699 9.83271 4.50195 8.48846 4.50195 6.83546C4.50195 5.18246 5.84779 3.83583 7.49999 3.83583C9.1522 3.83583 10.498 5.18166 10.498 6.83387C10.498 8.48608 9.1522 9.83033 7.49999 9.83033V9.83271ZM7.49999 5.02491C6.50249 5.02491 5.68945 5.83716 5.68945 6.83546C5.68945 7.83375 6.50249 8.64441 7.49999 8.64441C8.49749 8.64441 9.31054 7.83296 9.31054 6.83466C9.31054 5.83637 8.49749 5.02333 7.49999 5.02333V5.02491Z" fill="white"/>
<path d="M14.3812 6.96291C14.3812 3.17083 11.2937 0.0833282 7.50006 0.0833282C3.7064 0.0833282 0.618896 3.17083 0.618896 6.96291C0.618896 8.46866 1.09627 9.89841 1.99877 11.0978L2.00115 11.0962L2.00669 11.1081C3.29552 12.7468 6.97677 15.6657 7.13273 15.7884C7.24198 15.8755 7.37181 15.9175 7.50085 15.9175C7.6299 15.9175 7.75973 15.8755 7.86898 15.7892C8.02494 15.6665 11.7062 12.7492 12.995 11.1089L13.0006 11.0978L13.0021 11.0994C13.9046 9.8992 14.3812 8.47104 14.3812 6.9645V6.96291ZM7.50006 14.5629C6.53106 13.7792 3.92173 11.6219 2.94323 10.379C2.19906 9.38937 1.8064 8.2082 1.8064 6.96529C1.8064 3.82554 4.3611 1.27083 7.50006 1.27083C10.639 1.27083 13.1937 3.82474 13.1937 6.96291C13.1937 8.20583 12.8003 9.387 12.0569 10.3774C11.0784 11.6203 8.46906 13.7768 7.50006 14.5613V14.5629Z" fill="white"/>
</svg>
