<svg width="15" height="16" viewBox="0 0 15 16" fill="none" xmlns="http://www.w3.org/2000/svg">
<path d="M7.49999 9.83269C5.84699 9.83269 4.50195 8.48844 4.50195 6.83544C4.50195 5.18244 5.84779 3.83582 7.49999 3.83582C9.1522 3.83582 10.498 5.18165 10.498 6.83386C10.498 8.48607 9.1522 9.83032 7.49999 9.83032V9.83269ZM7.49999 5.0249C6.50249 5.0249 5.68945 5.83715 5.68945 6.83544C5.68945 7.83373 6.50249 8.6444 7.49999 8.6444C8.49749 8.6444 9.31054 7.83294 9.31054 6.83465C9.31054 5.83636 8.49749 5.02332 7.49999 5.02332V5.0249Z" fill="white"/>
<path d="M14.3812 6.96296C14.3812 3.17087 11.2937 0.083374 7.50006 0.083374C3.7064 0.083374 0.618896 3.17087 0.618896 6.96296C0.618896 8.46871 1.09627 9.89846 1.99877 11.0978L2.00115 11.0962L2.00669 11.1081C3.29552 12.7469 6.97677 15.6657 7.13273 15.7885C7.24198 15.8755 7.37181 15.9175 7.50085 15.9175C7.6299 15.9175 7.75973 15.8755 7.86898 15.7893C8.02494 15.6665 11.7062 12.7492 12.995 11.1089L13.0006 11.0978L13.0021 11.0994C13.9046 9.89925 14.3812 8.47108 14.3812 6.96454V6.96296ZM7.50006 14.563C6.53106 13.7792 3.92173 11.6219 2.94323 10.379C2.19906 9.38942 1.8064 8.20825 1.8064 6.96533C1.8064 3.82558 4.3611 1.27087 7.50006 1.27087C10.639 1.27087 13.1937 3.82479 13.1937 6.96296C13.1937 8.20587 12.8003 9.38704 12.0569 10.3774C11.0784 11.6203 8.46906 13.7768 7.50006 14.5614V14.563Z" fill="white"/>
</svg>
