<svg width="20" height="14" viewBox="0 0 20 14" fill="none" xmlns="http://www.w3.org/2000/svg">
<path d="M19.4443 9.58478C19.2131 9.35283 18.8371 9.35283 18.6051 9.58478L16.8476 11.3423V3.23562C16.8476 1.59845 15.5153 0.266868 13.8789 0.266868H9.24764C8.91989 0.266868 8.65389 0.532868 8.65389 0.860618C8.65389 1.18837 8.91989 1.45437 9.24764 1.45437H13.8789C14.8606 1.45437 15.6601 2.25395 15.6601 3.23562V11.3423L13.9026 9.58478C13.6707 9.35283 13.2946 9.35283 13.0635 9.58478C12.8323 9.81674 12.8307 10.1928 13.0635 10.424L15.8343 13.1948C15.9491 13.3112 16.1011 13.369 16.2539 13.369C16.4067 13.369 16.5571 13.3119 16.6735 13.1948L19.4443 10.424C19.6771 10.1928 19.6771 9.81674 19.4443 9.58478ZM11.0051 12.1815H6.37389C5.39223 12.1815 4.59264 11.3819 4.59264 10.4002V2.29353L6.35014 4.05103C6.46731 4.16741 6.61931 4.2252 6.77131 4.2252C6.92331 4.2252 7.07531 4.16741 7.19089 4.05103C7.42285 3.81908 7.42285 3.44303 7.19089 3.21187L4.42006 0.441034C4.1881 0.208284 3.81206 0.208284 3.58089 0.441034L0.810061 3.21187C0.577311 3.44303 0.577311 3.81908 0.810061 4.05103C1.04281 4.28299 1.41727 4.28299 1.64923 4.05103L3.40673 2.29353V10.4002C3.40673 12.0374 4.7391 13.369 6.37548 13.369H11.0067C11.3345 13.369 11.6005 13.103 11.6005 12.7752C11.6005 12.4475 11.3337 12.1815 11.0067 12.1815H11.0051Z" fill="white"/>
</svg>
