<svg width="133" height="29" viewBox="0 0 133 29" fill="none" xmlns="http://www.w3.org/2000/svg">
<path d="M8.29785 28.0977C4.89941 27.1442 3.2002 24.9494 3.2002 21.5132V18.6953C3.2002 16.7035 2.36003 15.7075 0.679688 15.7075V12.7764C2.32227 12.7764 3.16243 11.8371 3.2002 9.9585V6.95654C3.2002 5.21012 3.625 3.79883 4.47461 2.72266C5.32422 1.64648 6.59863 0.867676 8.29785 0.38623L9.09082 2.66602C8.37337 2.93034 7.83057 3.3929 7.4624 4.05371C7.09424 4.70508 6.90072 5.61133 6.88184 6.77246V9.74609C6.88184 11.8796 6.03695 13.3758 4.34717 14.2349C6.03695 15.1034 6.88184 16.609 6.88184 18.752V21.7539C6.92904 23.9629 7.66536 25.3128 9.09082 25.8037L8.29785 28.0977ZM16.0435 3.91211V7.67871H18.6631V10.6807H16.0435V18.3271C16.0435 18.8936 16.152 19.2995 16.3691 19.5449C16.5863 19.7904 17.0016 19.9131 17.6152 19.9131C18.0684 19.9131 18.4696 19.88 18.8188 19.814V22.915C18.0164 23.1605 17.1904 23.2832 16.3408 23.2832C13.471 23.2832 12.0078 21.8341 11.9512 18.936V10.6807H9.71387V7.67871H11.9512V3.91211H16.0435ZM30.1187 21.4424C29.1086 22.6696 27.7114 23.2832 25.9272 23.2832C24.2847 23.2832 23.0291 22.8112 22.1606 21.8672C21.3016 20.9232 20.8626 19.5402 20.8438 17.7183V7.67871H24.936V17.5767C24.936 19.172 25.6629 19.9697 27.1167 19.9697C28.5044 19.9697 29.4578 19.4883 29.9771 18.5254V7.67871H34.0835V23H30.2319L30.1187 21.4424ZM41.4893 23H37.3828V7.67871H41.4893V23ZM37.1421 3.71387C37.1421 3.10026 37.3451 2.59521 37.751 2.19873C38.1663 1.80225 38.728 1.604 39.436 1.604C40.1346 1.604 40.6916 1.80225 41.1069 2.19873C41.5223 2.59521 41.73 3.10026 41.73 3.71387C41.73 4.33691 41.5176 4.84668 41.0928 5.24316C40.6774 5.63965 40.1252 5.83789 39.436 5.83789C38.7469 5.83789 38.1899 5.63965 37.7651 5.24316C37.3498 4.84668 37.1421 4.33691 37.1421 3.71387ZM49.7729 3.91211V7.67871H52.3926V10.6807H49.7729V18.3271C49.7729 18.8936 49.8815 19.2995 50.0986 19.5449C50.3158 19.7904 50.7311 19.9131 51.3447 19.9131C51.7979 19.9131 52.1991 19.88 52.5483 19.814V22.915C51.7459 23.1605 50.9199 23.2832 50.0703 23.2832C47.2005 23.2832 45.7373 21.8341 45.6807 18.936V10.6807H43.4434V7.67871H45.6807V3.91211H49.7729ZM61.7241 23.2832C59.4774 23.2832 57.646 22.5941 56.23 21.2158C54.8234 19.8376 54.1201 18.0015 54.1201 15.7075V15.311C54.1201 13.7723 54.4175 12.3988 55.0122 11.1904C55.6069 9.97266 56.4471 9.03809 57.5327 8.38672C58.6278 7.72591 59.8739 7.39551 61.271 7.39551C63.3667 7.39551 65.014 8.05632 66.2129 9.37793C67.4212 10.6995 68.0254 12.5734 68.0254 14.9995V16.6704H58.269C58.4012 17.6711 58.7977 18.4735 59.4585 19.0776C60.1287 19.6818 60.9736 19.9839 61.9932 19.9839C63.5697 19.9839 64.8016 19.4128 65.689 18.2705L67.6997 20.522C67.0861 21.3905 66.2554 22.0701 65.2075 22.561C64.1597 23.0425 62.9985 23.2832 61.7241 23.2832ZM61.2568 10.709C60.445 10.709 59.7842 10.9827 59.2744 11.5303C58.7741 12.0778 58.4531 12.8613 58.3115 13.8809H64.0039V13.5552C63.985 12.6489 63.7396 11.9504 63.2676 11.4595C62.7956 10.9591 62.1253 10.709 61.2568 10.709ZM124.553 25.8037C125.988 25.2939 126.724 23.9251 126.762 21.6973V18.6953C126.762 16.5618 127.625 15.0798 129.353 14.249C127.625 13.4183 126.762 11.9126 126.762 9.73193V6.77246C126.724 4.57292 125.988 3.2041 124.553 2.66602L125.346 0.38623C127.035 0.858236 128.305 1.63232 129.155 2.7085C130.004 3.77523 130.434 5.17708 130.443 6.91406V9.9585C130.481 11.8371 131.321 12.7764 132.964 12.7764V15.7075C131.284 15.7075 130.443 16.694 130.443 18.667V21.7397C130.368 25.0438 128.669 27.1631 125.346 28.0977L124.553 25.8037Z" fill="white"/>
<path d="M79.2402 23C79.0514 22.6318 78.9146 22.174 78.8296 21.6265C77.8384 22.731 76.5498 23.2832 74.9639 23.2832C73.4629 23.2832 72.2168 22.849 71.2256 21.9805C70.2438 21.112 69.7529 20.0169 69.7529 18.6953C69.7529 17.0716 70.3524 15.8255 71.5513 14.957C72.7596 14.0885 74.5013 13.6496 76.7764 13.6401H78.6597V12.7622C78.6597 12.0542 78.4756 11.4878 78.1074 11.063C77.7487 10.6382 77.1776 10.4258 76.394 10.4258C75.7049 10.4258 75.1621 10.591 74.7656 10.9214C74.3786 11.2518 74.1851 11.7049 74.1851 12.2808H70.0928C70.0928 11.3934 70.3665 10.5721 70.9141 9.81689C71.4616 9.06169 72.2357 8.47168 73.2363 8.04688C74.237 7.61263 75.3604 7.39551 76.6064 7.39551C78.4945 7.39551 79.9907 7.87223 81.0952 8.82568C82.2091 9.76969 82.7661 11.1007 82.7661 12.8188V19.46C82.7756 20.9137 82.9785 22.0135 83.375 22.7593V23H79.2402ZM75.856 20.1538C76.4601 20.1538 77.0171 20.0216 77.5269 19.7573C78.0366 19.4836 78.4142 19.1201 78.6597 18.667V16.0332H77.1304C75.0819 16.0332 73.9915 16.7412 73.8594 18.1572L73.8452 18.3979C73.8452 18.9077 74.0246 19.3278 74.3833 19.6582C74.742 19.9886 75.2329 20.1538 75.856 20.1538ZM99.7158 15.481C99.7158 17.9354 99.1919 19.8517 98.144 21.23C97.0962 22.5988 95.633 23.2832 93.7544 23.2832C92.0929 23.2832 90.7666 22.646 89.7754 21.3716L89.5913 23H85.9097V1.25H90.002V9.05225C90.946 7.94775 92.1873 7.39551 93.7261 7.39551C95.5952 7.39551 97.0584 8.08464 98.1157 9.46289C99.1825 10.8317 99.7158 12.7622 99.7158 15.2544V15.481ZM95.6235 15.1836C95.6235 13.6354 95.3781 12.5073 94.8872 11.7993C94.3963 11.0819 93.6647 10.7231 92.6924 10.7231C91.3896 10.7231 90.4928 11.2565 90.002 12.3232V18.3696C90.5023 19.4458 91.4085 19.9839 92.7207 19.9839C94.0423 19.9839 94.9108 19.3325 95.3262 18.0298C95.5244 17.4067 95.6235 16.458 95.6235 15.1836ZM106.569 23H102.463V1.25H106.569V23ZM117.005 23.2832C114.759 23.2832 112.927 22.5941 111.511 21.2158C110.105 19.8376 109.401 18.0015 109.401 15.7075V15.311C109.401 13.7723 109.699 12.3988 110.293 11.1904C110.888 9.97266 111.728 9.03809 112.814 8.38672C113.909 7.72591 115.155 7.39551 116.552 7.39551C118.648 7.39551 120.295 8.05632 121.494 9.37793C122.702 10.6995 123.307 12.5734 123.307 14.9995V16.6704H113.55C113.682 17.6711 114.079 18.4735 114.74 19.0776C115.41 19.6818 116.255 19.9839 117.274 19.9839C118.851 19.9839 120.083 19.4128 120.97 18.2705L122.981 20.522C122.367 21.3905 121.537 22.0701 120.489 22.561C119.441 23.0425 118.28 23.2832 117.005 23.2832ZM116.538 10.709C115.726 10.709 115.065 10.9827 114.556 11.5303C114.055 12.0778 113.734 12.8613 113.593 13.8809H119.285V13.5552C119.266 12.6489 119.021 11.9504 118.549 11.4595C118.077 10.9591 117.407 10.709 116.538 10.709Z" fill="#999B9E"/>
</svg>
