<svg width="17" height="16" viewBox="0 0 17 16" fill="filled" xmlns="http://www.w3.org/2000/svg">
<path d="M8.59175 15.3045H8.58067C6.53579 15.2665 0.635498 9.93543 0.635498 4.88618C0.635498 2.46052 2.63446 0.330933 4.91287 0.330933C6.72579 0.330933 7.94496 1.58177 8.59096 2.49218C9.23537 1.58335 10.4545 0.330933 12.2682 0.330933C14.5482 0.330933 16.5464 2.46052 16.5464 4.88697C16.5464 9.93464 10.6453 15.2657 8.60046 15.3029H8.59175V15.3045ZM4.91366 1.51922C3.267 1.51922 1.82379 3.09306 1.82379 4.88777C1.82379 9.43193 7.39237 14.0679 8.59254 14.117C9.79429 14.0679 15.3613 9.43272 15.3613 4.88777C15.3613 3.09306 13.9181 1.51922 12.2714 1.51922C10.2701 1.51922 9.15225 3.84356 9.14275 3.86652C8.96066 4.31143 8.22758 4.31143 8.04471 3.86652C8.03362 3.84277 6.91658 1.51922 4.91446 1.51922H4.91366Z" fill="red"/>
</svg>
